<svg width="20" height="20" viewBox="0 0 20 20" fill="none" xmlns="http://www.w3.org/2000/svg">
<path d="M19.6487 7.86157L17.1463 5.82204V2.56025C17.1463 2.19294 16.8474 1.89407 16.4801 1.89407H14.9055C14.5382 1.89407 14.2393 2.19294 14.2393 2.56025V3.45274L10.8955 0.72753C10.6536 0.530462 10.3348 0.421875 9.99788 0.421875C9.66225 0.421875 9.34497 0.529796 9.10442 0.725834L0.351261 7.86151C-0.0464469 8.18558 -0.0225856 8.46785 0.0270143 8.60727C0.0764932 8.74638 0.235831 8.97978 0.746729 8.97978H1.9453V18.3636C1.9453 19.0333 2.48866 19.5781 3.15654 19.5781H6.94164C7.60388 19.5781 8.12259 19.0446 8.12259 18.3636V14.5155C8.12259 14.1857 8.4257 13.8853 8.75849 13.8853H11.3021C11.6193 13.8853 11.8774 14.168 11.8774 14.5155V18.3636C11.8774 19.0219 12.446 19.5781 13.1189 19.5781H16.8435C17.5113 19.5781 18.0547 19.0333 18.0547 18.3636V8.97978H19.2533C19.7642 8.97978 19.9235 8.74638 19.973 8.60727C20.0226 8.46785 20.0465 8.18558 19.6487 7.86157Z" fill="white"/>
</svg>
